<?xml version="1.0" encoding="UTF-8"?>
<svg id="Calque_1" data-name="Calque 1" xmlns="http://www.w3.org/2000/svg" viewBox="0 0 200 50">
  <defs>
    <style>
      .cls-1 {
        fill: #009640;
      }

      .cls-2 {
        fill: #fff;
        stroke: #009640;
        stroke-miterlimit: 10;
      }
    </style>
  </defs>
  <g>
    <path class="cls-2" d="m31.34,38.21v-14.21h-8.78v4.13c-2.82,0-4.22-1.06-4.22-3.21,0-1.13.4-2.05,1.2-2.73.8-.69,1.86-1.04,3.19-1.04,2,0,4.18.57,6.54,1.7l2.08-2.93v-6.75c-.85-.35-1.73-.63-2.65-.88-2.28-.63-4.47-.93-6.6-.93-3.02,0-5.64.57-7.85,1.73-2.21,1.16-3.9,2.78-5.07,4.88s-1.76,4.41-1.76,6.93c0,3.65,1.25,6.85,3.77,9.61,2.52,2.74,7.01,4.11,13.47,4.11,1.68,0,4.88-.13,9.62-.4v-.03h-2.93Z"/>
    <path class="cls-2" d="m58.13,19.16c0-2.28-.87-4.07-2.6-5.4-1.72-1.32-4.27-1.98-7.65-1.98h-16.54v26.43h18.45c1.13,0,2.16-.11,3.09-.32l4.01-11.54c-.6-.56-1.33-1.06-2.2-1.52,2.3-1.3,3.45-3.19,3.45-5.67Zm-15.08-2.06h.71c2.05,0,3.09.85,3.09,2.56,0,.95-.27,1.62-.8,2.01-.53.39-1.44.57-2.7.57h-.29v-5.14Zm3.22,14.67c-.57.41-1.52.63-2.86.63h-.36v-5.72h.81c2.18,0,3.27,1,3.27,2.98,0,1-.29,1.72-.87,2.12Z"/>
    <rect class="cls-2" x="83.42" y="11.78" width="9.84" height="26.43"/>
    <path class="cls-2" d="m78.61,11.78h-16.66l-5.07,14.57-4.01,11.54-.11.32h11.71l1.52-4.47h8.58l1.53,4.47h7.31v-12.6l-4.8-13.83Zm-10.49,15.73l2.17-6.56,2.16,6.56h-4.33Z"/>
    <path class="cls-2" d="m120.13,19.7c0-2.26-.85-4.15-2.57-5.66-1.7-1.5-4.06-2.26-7.04-2.26h-17.26v26.43h11.69v-9.78c1.65,0,2.86.8,3.65,2.38.77,1.6,1.28,4.06,1.49,7.4h5.3l3.54-10.22c-.53-.87-1.13-1.68-1.8-2.44,2.01-1.41,3.01-3.37,3.01-5.86Zm-14.85,2.61h-.33v-5.08h.71c1,0,1.7.27,2.13.79.43.52.64,1.13.64,1.82,0,1.65-1.04,2.48-3.14,2.48Z"/>
    <path class="cls-2" d="m141.22,11.78h-16.68l-5.63,16.21-3.54,10.22h11.7l1.53-4.47h8.58l1.52,4.47h7.32v-12.6l-4.8-13.83Zm-10.49,15.73l2.16-6.56,2.17,6.56h-4.33Z"/>
    <rect class="cls-2" x="146.03" y="11.78" width="11.69" height="26.43"/>
  </g>
  <g>
    <path class="cls-1" d="m161.56,35.05c0-.99.35-1.84,1.05-2.54s1.55-1.05,2.54-1.05,1.82.35,2.53,1.05,1.05,1.55,1.05,2.54-.35,1.83-1.05,2.53-1.54,1.06-2.53,1.06-1.84-.35-2.54-1.06-1.05-1.55-1.05-2.53Z"/>
    <path class="cls-1" d="m183.27,25.63v5.81c-1.35-.65-2.59-.97-3.72-.97-.65,0-1.16.1-1.52.31-.36.21-.54.5-.54.86,0,.85.79,1.28,2.37,1.28,1.35,0,2.49-.23,3.42-.69v5.74c-1.33.39-2.75.58-4.26.58-2.66,0-4.71-.64-6.16-1.91-1.45-1.28-2.18-2.9-2.18-4.86s.69-3.61,2.08-4.95c1.39-1.33,3.25-2,5.58-2,1.62,0,3.27.26,4.94.79Z"/>
    <path class="cls-1" d="m192.59,25.11v13.25h-6.8v-13.25c.89.51,2.06.76,3.49.76,1.33,0,2.43-.25,3.31-.76Zm-3.29-1.29c-.53,0-.98-.19-1.36-.57s-.57-.84-.57-1.36.19-.98.57-1.35c.38-.37.84-.56,1.36-.56s.98.19,1.35.56c.37.37.56.83.56,1.35s-.19.98-.56,1.36c-.37.38-.83.57-1.35.57Z"/>
  </g>
</svg>