<?xml version="1.0" encoding="UTF-8"?>
<svg id="Calque_1" data-name="Calque 1" xmlns="http://www.w3.org/2000/svg" viewBox="0 0 200 50">
  <defs>
    <style>
      .cls-1 {
        fill: #fff;
        stroke: #1d1d1b;
        stroke-miterlimit: 10;
      }
    </style>
  </defs>
  <g>
    <path class="cls-1" d="m36.37,37.13v-13.05h-8.07v3.79c-2.59,0-3.87-.98-3.87-2.95,0-1.04.37-1.88,1.1-2.51.73-.64,1.71-.95,2.93-.95,1.83,0,3.84.53,6,1.56l1.91-2.69v-6.2c-.78-.32-1.59-.57-2.43-.81-2.09-.57-4.11-.86-6.06-.86-2.77,0-5.18.53-7.21,1.59-2.03,1.06-3.58,2.55-4.66,4.49s-1.61,4.05-1.61,6.37c0,3.35,1.15,6.29,3.46,8.82,2.31,2.52,6.44,3.78,12.37,3.78,1.54,0,4.49-.12,8.84-.37v-.02h-2.69Z"/>
    <path class="cls-1" d="m60.98,19.64c0-2.09-.79-3.74-2.38-4.96-1.58-1.21-3.92-1.82-7.03-1.82h-15.19v24.27h16.94c1.04,0,1.98-.1,2.84-.29l3.68-10.6c-.55-.51-1.22-.98-2.02-1.39,2.11-1.2,3.17-2.93,3.17-5.21Zm-13.85-1.89h.65c1.88,0,2.84.78,2.84,2.35,0,.87-.24,1.49-.73,1.85-.49.35-1.32.53-2.48.53h-.27v-4.72Zm2.96,13.47c-.53.38-1.39.57-2.63.57h-.33v-5.26h.75c2,0,3.01.92,3.01,2.74,0,.92-.27,1.58-.79,1.94Z"/>
    <rect class="cls-1" x="84.2" y="12.86" width="9.03" height="24.27"/>
    <path class="cls-1" d="m79.79,12.86h-15.3l-4.66,13.38-3.68,10.6-.1.29h10.76l1.39-4.11h7.88l1.41,4.11h6.71v-11.57l-4.41-12.7Zm-9.63,14.45l1.99-6.03,1.98,6.03h-3.97Z"/>
    <path class="cls-1" d="m117.91,20.13c0-2.08-.78-3.81-2.36-5.19-1.56-1.38-3.73-2.08-6.47-2.08h-15.85v24.27h10.73v-8.98c1.52,0,2.63.73,3.35,2.19.71,1.47,1.17,3.73,1.37,6.8h4.86l3.25-9.39c-.49-.79-1.04-1.54-1.65-2.24,1.85-1.3,2.76-3.09,2.76-5.38Zm-13.64,2.4h-.31v-4.67h.65c.92,0,1.56.24,1.96.72.39.48.59,1.04.59,1.67,0,1.52-.95,2.27-2.88,2.27Z"/>
    <path class="cls-1" d="m137.28,12.86h-15.31l-5.17,14.89-3.25,9.39h10.74l1.41-4.11h7.88l1.39,4.11h6.72v-11.57l-4.41-12.7Zm-9.63,14.45l1.98-6.03,1.99,6.03h-3.97Z"/>
    <rect class="cls-1" x="141.69" y="12.86" width="10.73" height="24.27"/>
  </g>
  <g>
    <path d="m157.1,34.23c0-.91.32-1.69.96-2.33s1.42-.96,2.33-.96,1.68.32,2.32.96.96,1.42.96,2.33-.32,1.68-.96,2.32-1.42.97-2.32.97-1.69-.32-2.33-.97-.96-1.42-.96-2.32Z"/>
    <path d="m177.04,25.58v5.34c-1.24-.59-2.38-.89-3.41-.89-.6,0-1.07.1-1.4.29-.33.19-.5.46-.5.79,0,.78.72,1.17,2.17,1.17,1.24,0,2.29-.21,3.14-.64v5.27c-1.22.36-2.52.53-3.91.53-2.44,0-4.32-.59-5.66-1.76-1.33-1.17-2-2.66-2-4.47s.64-3.32,1.91-4.54c1.27-1.22,2.98-1.83,5.12-1.83,1.49,0,3,.24,4.54.73Z"/>
    <path d="m185.6,25.1v12.17h-6.24v-12.17c.82.47,1.89.7,3.2.7,1.22,0,2.23-.23,3.04-.7Zm-3.02-1.18c-.48,0-.9-.17-1.25-.53s-.53-.77-.53-1.25.18-.9.53-1.24c.35-.34.77-.51,1.25-.51s.9.17,1.24.51c.34.34.52.76.52,1.24s-.17.9-.52,1.25c-.34.35-.76.53-1.24.53Z"/>
  </g>
</svg>